<svg xmlns="http://www.w3.org/2000/svg" width="88" height="88" fill="none"><g filter="url(#a)"><rect width="56" height="56" fill="#000" fill-opacity=".01" rx="28" transform="matrix(-1 0 0 1 72 4)"/><rect width="56" height="56" fill="#FFB45E" rx="28" transform="matrix(-1 0 0 1 72 4)"/><path fill="#292A2B" d="m45.063 27.094-.688-.688c-.312-.281-.781-.281-1.062 0l-6.094 6.063c-.282.312-.282.781 0 1.062l6.093 6.094c.282.281.75.281 1.063 0l.688-.687a.814.814 0 0 0 0-1.094L41.28 34.25h8.969c.438 0 .75-.312.75-.75v-1a.74.74 0 0 0-.75-.75h-8.969l3.782-3.562c.28-.313.312-.782 0-1.094"/></g><defs><filter id="a" width="88" height="88" x="0" y="0" color-interpolation-filters="sRGB" filterUnits="userSpaceOnUse"><feFlood flood-opacity="0" result="BackgroundImageFix"/><feColorMatrix in="SourceAlpha" result="hardAlpha" values="0 0 0 0 0 0 0 0 0 0 0 0 0 0 0 0 0 0 127 0"/><feOffset dy="12"/><feGaussianBlur stdDeviation="8"/><feColorMatrix values="0 0 0 0 0 0 0 0 0 0 0 0 0 0 0 0 0 0 0.08 0"/><feBlend in2="BackgroundImageFix" result="effect1_dropShadow_3_1250"/><feBlend in="SourceGraphic" in2="effect1_dropShadow_3_1250" result="shape"/></filter></defs></svg>