<svg width="75" height="42" viewBox="0 0 75 42" fill="none" xmlns="http://www.w3.org/2000/svg">
<path d="M68.6109 23.8252C67.7373 23.8284 67.0302 24.5427 67.0332 25.4225C67.0365 26.2991 67.7437 27.007 68.6155 27.007C68.6172 27.007 68.6188 27.007 68.6202 27.007C69.4938 27.0054 70.2009 26.2911 70.1978 25.4113C70.1948 24.5332 69.4843 23.8236 68.6109 23.8252Z" fill="#3E42DF"/>
<path d="M64.4685 22.8596C64.4703 22.8596 64.4703 22.8596 64.4718 22.8596C65.3468 22.858 66.0525 22.1436 66.0508 21.2655C66.0492 20.3873 65.3388 19.6761 64.4653 19.6777C63.5918 19.6793 62.8847 20.3936 62.8862 21.2718C62.888 22.1484 63.5968 22.8596 64.4685 22.8596Z" fill="#3E42DF"/>
<path d="M60.3375 23.8429C59.464 23.8445 58.7568 24.5572 58.7568 25.4354C58.7584 26.3152 59.4673 27.0263 60.3407 27.0247C61.2143 27.0247 61.923 26.3104 61.9214 25.4322C61.9214 24.554 61.211 23.8429 60.3375 23.8429Z" fill="#3E42DF"/>
<path d="M64.4878 27.9998C64.4878 27.9998 64.4862 27.9998 64.4846 27.9998C64.4813 27.9998 64.4799 27.9998 64.4783 27.9998C63.6033 27.9998 62.896 28.7125 62.896 29.5907C62.896 30.4689 63.6033 31.1816 64.4783 31.1816C64.4799 31.1816 64.483 31.1816 64.4846 31.1816C64.4878 31.1816 64.4909 31.1816 64.4941 31.1816C64.4974 31.1816 64.4988 31.1816 64.5004 31.1816C65.3754 31.1784 66.0795 30.4625 66.0764 29.5843C66.0732 28.7061 65.3612 27.9966 64.4878 27.9998Z" fill="#3E42DF"/>
<path d="M14.5518 24.1868H12.3416V21.9644C12.3416 21.0858 11.6332 20.3735 10.7593 20.3735C9.88539 20.3735 9.177 21.0858 9.177 21.9644V24.1868H6.96656C6.09266 24.1868 5.38428 24.899 5.38428 25.7777C5.38428 26.6564 6.09266 27.3686 6.96656 27.3686H9.177V29.5909C9.177 30.4696 9.88539 31.1819 10.7593 31.1819C11.6332 31.1819 12.3416 30.4696 12.3416 29.5909V27.3686H14.5518C15.4257 27.3686 16.1341 26.6564 16.1341 25.7777C16.1341 24.899 15.4257 24.1868 14.5518 24.1868Z" fill="#3E42DF"/>
<path d="M65.7248 0H9.27516C4.16076 0 0 4.18345 0 9.32575V32.6743C0 37.8165 4.16076 42 9.27516 42H65.7248C70.8391 42 75 37.8165 75 32.6743V9.32575C75 4.18345 70.8391 0 65.7248 0ZM71.8354 32.6743C71.8354 36.0621 69.0943 38.8182 65.7248 38.8182H9.27516C5.90585 38.8182 3.16456 36.0621 3.16456 32.6743V9.32575C3.16456 5.93791 5.90585 3.18182 9.27516 3.18182H65.7248C69.0943 3.18182 71.8354 5.93791 71.8354 9.32575V32.6743Z" fill="#3E42DF"/>
<path d="M55.6167 5.32947H19.3826C18.5087 5.32947 17.8003 6.04172 17.8003 6.92038V35.0795C17.8003 35.9581 18.5087 36.6704 19.3826 36.6704H55.6167C56.4905 36.6704 57.199 35.9581 57.199 35.0795V6.92038C57.199 6.04172 56.4905 5.32947 55.6167 5.32947ZM54.0345 33.4886H20.9648V8.51129H54.0345V33.4886Z" fill="#3E42DF"/>
<path d="M10.6543 15.9139C13.0998 15.9139 15.0894 13.9135 15.0894 11.4544C15.0894 8.99537 13.0998 6.99512 10.6543 6.99512C8.20871 6.99512 6.21899 8.99553 6.21899 11.4544C6.21899 13.9133 8.20871 15.9139 10.6543 15.9139ZM10.6543 10.1769C11.3549 10.1769 11.9248 10.75 11.9248 11.4544C11.9248 12.1589 11.3548 12.7321 10.6543 12.7321C9.95365 12.7321 9.38355 12.1589 9.38355 11.4544C9.38355 10.75 9.95365 10.1769 10.6543 10.1769Z" fill="#3E42DF"/>
<path d="M64.3458 15.9139C66.7913 15.9139 68.7809 13.9135 68.7809 11.4544C68.7809 8.99537 66.7913 6.99512 64.3458 6.99512C61.9002 6.99512 59.9106 8.99553 59.9106 11.4544C59.9106 13.9133 61.9002 15.9139 64.3458 15.9139ZM64.3458 10.1769C65.0464 10.1769 65.6163 10.75 65.6163 11.4544C65.6163 12.1589 65.0462 12.7321 64.3458 12.7321C63.6453 12.7321 63.0752 12.1589 63.0752 11.4544C63.0752 10.75 63.6451 10.1769 64.3458 10.1769Z" fill="#3E42DF"/>
<path d="M38.6592 30.5502C41.1963 30.5502 43.5815 29.5569 45.3755 27.7531C45.9933 27.1319 45.9933 26.1245 45.3755 25.5032L40.897 21L45.3756 16.497C45.9935 15.8757 45.9935 14.8683 45.3756 14.2471C43.5816 12.4433 41.1965 11.45 38.6593 11.45C36.1223 11.45 33.737 12.4433 31.943 14.2471C28.2397 17.9708 28.2397 24.0294 31.943 27.753C33.7368 29.5567 36.1221 30.5502 38.6592 30.5502ZM34.1805 16.497C35.3769 15.2941 36.9674 14.6318 38.6592 14.6318C39.8099 14.6318 40.9141 14.9383 41.8789 15.513L37.5403 19.8752C36.9224 20.4965 36.9224 21.5039 37.5403 22.1251L41.8789 26.4874C40.9141 27.062 39.8101 27.3686 38.6592 27.3686C36.9674 27.3686 35.3767 26.7061 34.1805 25.5034C31.7111 23.0202 31.7111 18.9799 34.1805 16.497Z" fill="#3E42DF"/>
</svg>
