<svg width="43" height="42" viewBox="0 0 43 42" fill="none" xmlns="http://www.w3.org/2000/svg">
<g clip-path="url(#clip0_3_1767)">
<path d="M4.33325 15.75H9.58325V36.75H4.33325C3.86912 36.75 3.424 36.5656 3.09582 36.2374C2.76763 35.9092 2.58325 35.4641 2.58325 35V17.5C2.58325 17.0358 2.76763 16.5907 3.09582 16.2625C3.424 15.9343 3.86912 15.75 4.33325 15.75ZM13.596 13.4872L24.796 2.2872C24.9449 2.13792 25.1426 2.04739 25.3529 2.03228C25.5632 2.01717 25.7718 2.07848 25.9405 2.20495L27.4333 3.32495C27.8478 3.63618 28.161 4.06319 28.3332 4.55215C28.5054 5.0411 28.529 5.57011 28.401 6.07245L26.3833 14H37.5833C38.5115 14 39.4018 14.3687 40.0581 15.0251C40.7145 15.6815 41.0833 16.5717 41.0833 17.5V21.182C41.0837 21.6393 40.9945 22.0924 40.8208 22.5155L35.4045 35.6667C35.2724 35.9873 35.048 36.2615 34.7598 36.4543C34.4716 36.6472 34.1325 36.7501 33.7858 36.75H14.8333C14.3691 36.75 13.924 36.5656 13.5958 36.2374C13.2676 35.9092 13.0833 35.4641 13.0833 35V14.7245C13.0834 14.2604 13.2678 13.8153 13.596 13.4872Z" fill="#3E42DF"/>
</g>
<defs>
<clipPath id="clip0_3_1767">
<rect width="42" height="42" fill="white" transform="translate(0.833252)"/>
</clipPath>
</defs>
</svg>
